<?xml version="1.0" encoding="UTF-8"?>
<svg id="Layer_1" data-name="Layer 1" xmlns="http://www.w3.org/2000/svg" viewBox="0 0 120 120">
  <defs>
    <style>
      .cls-1 {
        fill: #010101;
      }

      .cls-2 {
        fill: #fff;
      }
    </style>
  </defs>
  <rect class="cls-1" x="-.8" y="-.76" width="120" height="120" rx="31.39" ry="31.39" transform="translate(118.44 .05) rotate(90)"/>
  <g>
    <path class="cls-2" d="M77.82,36.63c-2.28,0-4.12,1.85-4.12,4.12s1.85,4.12,4.12,4.12,4.12-1.85,4.12-4.12-1.85-4.12-4.12-4.12Z"/>
    <path class="cls-2" d="M59.49,41.92c-9.55,0-17.33,7.77-17.33,17.32s7.77,17.32,17.33,17.32,17.32-7.77,17.32-17.32-7.77-17.32-17.32-17.32ZM59.49,70.34c-6.12,0-11.1-4.98-11.1-11.1s4.98-11.1,11.1-11.1,11.1,4.98,11.1,11.1-4.98,11.1-11.1,11.1Z"/>
    <path class="cls-2" d="M73.24,94.42h-28.09c-11.65,0-21.13-9.48-21.13-21.13v-28.09c0-11.65,9.48-21.13,21.13-21.13h28.09c11.65,0,21.13,9.48,21.13,21.13v28.09c0,11.65-9.48,21.13-21.13,21.13ZM45.15,30.69c-8,0-14.51,6.51-14.51,14.51v28.09c0,8,6.51,14.51,14.51,14.51h28.09c8,0,14.51-6.51,14.51-14.51v-28.09c0-8-6.51-14.51-14.51-14.51h-28.09Z"/>
  </g>
</svg>