<?xml version="1.0" encoding="UTF-8"?>
<svg id="Layer_1" data-name="Layer 1" xmlns="http://www.w3.org/2000/svg" viewBox="0 0 120 120">
  <defs>
    <style>
      .cls-1 {
        fill: #010101;
      }

      .cls-2 {
        fill: #fff;
      }
    </style>
  </defs>
  <path class="cls-1" d="M-.28,87.93V31.61C-.28,14.62,13.84.71,31.11.71h57.22c17.26,0,31.39,13.9,31.39,30.9v56.32c0,16.99-14.13,30.9-31.39,30.9h-19.24l-10.07-2.42-8.68,2.42h-19.24c-17.26,0-31.39-13.9-31.39-30.9Z"/>
  <path class="cls-2" d="M83.07,78.78l2.66-17.07h-16.64v-11.08c0-4.67,2.32-9.22,9.78-9.22h7.57v-14.53s-6.87-1.15-13.43-1.15c-13.71,0-22.66,8.18-22.66,22.98v13.01h-15.23v17.07h15.23v40.05h18.75v-40.05h13.98Z"/>
</svg>