<?xml version="1.0" encoding="UTF-8"?>
<svg id="Layer_1" data-name="Layer 1" xmlns="http://www.w3.org/2000/svg" viewBox="0 0 120 120">
  <defs>
    <style>
      .cls-1 {
        fill: #010101;
      }

      .cls-2 {
        fill: #fff;
      }
    </style>
  </defs>
  <rect class="cls-1" x=".94" y="-.76" width="120" height="120" rx="31.39" ry="31.39" transform="translate(120.18 -1.7) rotate(90)"/>
  <path class="cls-2" d="M93.38,26.39H27.1c-7.04,0-12.74,5.7-12.74,12.74v41.93c0,7.04,5.7,12.74,12.74,12.74h66.28c7.03,0,12.74-5.7,12.74-12.74v-41.93c0-7.04-5.7-12.74-12.74-12.74ZM46.29,71.87l-17.84,15.22c-1.26,1.07-3.15.92-4.22-.33-1.07-1.26-.92-3.15.34-4.22l17.84-15.22c1.26-1.07,3.15-.92,4.22.34,1.07,1.26.92,3.15-.33,4.22ZM60.24,66.09c-2.39,0-4.7-.8-6.51-2.36h0s0,0,0,0c0,0,0,0,0,0l-27.37-23.76c-1.25-1.09-1.38-2.98-.3-4.23,1.09-1.25,2.98-1.38,4.23-.3l27.38,23.76c.59.52,1.55.9,2.57.89,1.02,0,1.97-.36,2.59-.9h.01s27.35-23.75,27.35-23.75c1.25-1.08,3.14-.95,4.23.3,1.08,1.25.95,3.14-.3,4.23l-27.38,23.76c-1.8,1.55-4.11,2.35-6.5,2.36ZM96.25,86.76c-1.07,1.26-2.97,1.41-4.22.33l-17.84-15.22c-1.26-1.07-1.41-2.97-.33-4.22,1.07-1.26,2.97-1.41,4.22-.34l17.84,15.22c1.26,1.07,1.41,2.97.33,4.22Z"/>
</svg>