<?xml version="1.0" encoding="UTF-8"?>
<svg id="Layer_1" data-name="Layer 1" xmlns="http://www.w3.org/2000/svg" viewBox="0 0 120 120">
  <defs>
    <style>
      .cls-1 {
        fill: #010101;
      }

      .cls-2 {
        fill: #fff;
      }
    </style>
  </defs>
  <g>
    <path class="cls-2" d="M77.82,36.63c-2.28,0-4.12,1.85-4.12,4.12s1.85,4.12,4.12,4.12,4.12-1.85,4.12-4.12-1.85-4.12-4.12-4.12Z"/>
    <path class="cls-2" d="M59.49,41.92c-9.55,0-17.33,7.77-17.33,17.32s7.77,17.32,17.33,17.32,17.32-7.77,17.32-17.32-7.77-17.32-17.32-17.32ZM59.49,70.34c-6.12,0-11.1-4.98-11.1-11.1s4.98-11.1,11.1-11.1,11.1,4.98,11.1,11.1-4.98,11.1-11.1,11.1Z"/>
    <path class="cls-2" d="M73.24,94.42h-28.09c-11.65,0-21.13-9.48-21.13-21.13v-28.09c0-11.65,9.48-21.13,21.13-21.13h28.09c11.65,0,21.13,9.48,21.13,21.13v28.09c0,11.65-9.48,21.13-21.13,21.13ZM45.15,30.69c-8,0-14.51,6.51-14.51,14.51v28.09c0,8,6.51,14.51,14.51,14.51h28.09c8,0,14.51-6.51,14.51-14.51v-28.09c0-8-6.51-14.51-14.51-14.51h-28.09Z"/>
  </g>
  <rect class="cls-1" x="1.04" y="-.15" width="119" height="120" rx="29.5" ry="29.5" transform="translate(120.39 -.69) rotate(90)"/>
  <path class="cls-2" d="M35.38,48.77h11.62v37.02h-11.62v-37.02ZM41.19,30.37c3.72,0,6.73,2.99,6.73,6.67s-3.01,6.68-6.73,6.68-6.74-2.99-6.74-6.68,3.01-6.67,6.74-6.67"/>
  <path class="cls-2" d="M54.28,48.77h11.13v5.06h.15c1.55-2.91,5.34-5.98,10.99-5.98,11.75,0,13.91,7.66,13.91,17.63v20.3h-11.6v-18c0-4.3-.08-9.82-6.03-9.82s-6.96,4.68-6.96,9.5v18.31h-11.6v-37.02Z"/>
</svg>